<?xml version="1.0" standalone="no"?>
<!DOCTYPE svg PUBLIC "-//W3C//DTD SVG 20010904//EN"
 "http://www.w3.org/TR/2001/REC-SVG-20010904/DTD/svg10.dtd">
<svg version="1.0" xmlns="http://www.w3.org/2000/svg"
 width="957.000000pt" height="300.000000pt" viewBox="0 0 957.000000 300.000000"
 preserveAspectRatio="xMidYMid meet">

<g transform="translate(0.000000,300.000000) scale(0.100000,-0.100000)"
fill="#000000" stroke="none">
<path d="M641 2434 c-36 -7 -69 -19 -75 -25 -13 -13 15 -10 143 16 71 14 97
15 159 6 92 -14 107 -7 19 8 -83 14 -166 13 -246 -5z"/>
<path d="M260 2315 c-10 -12 -11 -21 -4 -33 11 -17 36 -29 33 -15 -4 21 2 33
17 33 22 0 11 24 -13 28 -11 2 -26 -4 -33 -13z"/>
<path d="M422 2278 c-4 -59 -91 -124 -150 -112 -29 6 -31 4 -71 -77 -50 -102
-75 -222 -66 -320 11 -124 20 -118 21 14 0 119 3 139 27 201 46 117 88 166
142 166 33 0 83 32 95 60 6 15 10 43 7 61 -3 28 -4 29 -5 7z"/>
<path d="M738 2173 c-38 -43 -70 -142 -83 -255 -9 -84 8 -71 22 15 19 116 78
227 121 227 12 0 12 3 2 15 -17 20 -43 19 -62 -2z"/>
<path d="M569 2132 c-80 -51 -153 -156 -166 -239 -8 -49 10 -40 30 16 21 59
81 142 128 177 28 20 69 74 56 74 -2 0 -23 -13 -48 -28z"/>
<path d="M944 2106 c19 -49 21 -51 24 -26 2 17 10 30 20 32 12 2 7 9 -19 26
-20 12 -39 22 -41 22 -3 0 4 -24 16 -54z"/>
<path d="M974 1983 c3 -25 6 -63 6 -84 l0 -39 86 0 86 0 -7 33 c-4 17 -17 54
-28 80 l-22 48 -64 4 -63 3 6 -45z"/>
<path d="M1200 2022 c0 -2 10 -35 21 -73 17 -57 20 -89 17 -172 -3 -90 -8
-110 -36 -168 -36 -76 -92 -136 -175 -190 -77 -50 -139 -69 -250 -79 -51 -4
-80 -8 -65 -9 55 -3 58 -8 58 -88 l0 -76 58 7 c31 3 90 16 131 28 83 25 106
19 106 -28 0 -25 -6 -31 -50 -47 -73 -27 -185 -47 -278 -49 -77 -1 -78 -2 -27
-7 l55 -6 6 -105 c7 -120 24 -168 75 -206 55 -42 111 -53 280 -55 155 -1 157
-1 182 24 l25 25 -32 17 c-18 9 -31 21 -28 28 2 6 62 32 133 58 l129 46 3 296
2 296 -42 3 c-48 3 -47 -1 -16 88 10 30 21 74 25 97 4 30 11 43 26 47 19 5 20
10 14 103 -4 54 -7 119 -7 145 0 44 -2 47 -31 53 -17 4 -32 5 -34 3 -1 -1 3
-32 11 -68 7 -36 14 -113 14 -171 0 -128 -21 -210 -83 -314 -38 -64 -41 -75
-38 -132 2 -58 0 -64 -33 -100 -32 -35 -39 -38 -90 -38 -47 0 -59 4 -85 29
-71 68 -55 167 32 213 16 8 43 13 60 12 18 -2 38 0 45 5 29 17 7 26 -67 26
-74 0 -110 11 -78 23 18 7 62 99 77 159 14 53 23 58 113 58 l57 0 0 85 c0 80
-13 167 -28 191 -6 10 -182 25 -182 16z m301 -1003 c28 -30 30 -49 5 -49 -19
0 -69 57 -62 69 12 18 26 13 57 -20z"/>
<path d="M835 1978 c-27 -21 -55 -73 -55 -103 0 -12 13 -15 60 -15 l61 0 -6
35 c-3 19 -7 51 -10 70 -7 41 -13 42 -50 13z"/>
<path d="M3270 1910 c-12 -8 -9 -10 13 -10 16 0 26 4 22 10 -8 12 -16 12 -35
0z"/>
<path d="M2800 1690 c-2 -96 -2 -314 0 -485 2 -220 -1 -323 -10 -355 -15 -56
-72 -114 -125 -129 -27 -7 -218 -11 -582 -11 -299 0 -543 -3 -543 -7 0 -5 264
-6 587 -3 l588 5 31 22 c66 47 69 62 70 418 1 176 -2 410 -6 520 l-7 200 -3
-175z"/>
<path d="M400 1744 c1 -16 7 -42 15 -59 12 -26 14 -27 9 -5 -8 39 16 61 76 70
l55 8 -46 1 c-26 0 -61 4 -78 7 -29 6 -31 5 -31 -22z"/>
<path d="M654 1710 c4 -30 11 -69 16 -85 6 -23 7 -17 3 26 -5 52 -4 57 22 77
28 22 71 29 77 13 2 -5 30 -11 63 -12 55 -3 60 -1 63 19 3 21 2 22 -123 19
l-127 -2 6 -55z"/>
<path d="M985 1760 c-3 -6 -4 -18 -1 -28 9 -28 -20 -178 -43 -225 -11 -22 -18
-43 -16 -45 2 -3 16 3 31 13 18 11 23 20 15 24 -9 6 -8 22 4 66 8 32 18 80 21
106 l6 47 57 7 c31 3 63 5 71 3 9 -2 16 6 18 20 3 21 1 22 -77 22 -44 0 -83
-5 -86 -10z"/>
<path d="M681 1574 c0 -11 3 -14 6 -6 3 7 2 16 -1 19 -3 4 -6 -2 -5 -13z"/>
<path d="M770 1460 c0 -36 9 -38 38 -7 29 31 28 37 -8 37 -27 0 -30 -3 -30
-30z"/>
<path d="M1226 1354 c-19 -18 -19 -20 -6 -45 14 -25 56 -25 70 1 23 44 -29 80
-64 44z"/>
<path d="M2080 1255 l0 -55 235 0 235 0 0 55 0 55 -235 0 -235 0 0 -55z"/>
<path d="M628 1083 c7 -3 16 -2 19 1 4 3 -2 6 -13 5 -11 0 -14 -3 -6 -6z"/>
<path d="M2260 1015 l0 -55 145 0 145 0 0 55 0 55 -145 0 -145 0 0 -55z"/>
</g>
</svg>
