<?xml version="1.0" standalone="no"?>
<!DOCTYPE svg PUBLIC "-//W3C//DTD SVG 20010904//EN"
 "http://www.w3.org/TR/2001/REC-SVG-20010904/DTD/svg10.dtd">
<svg version="1.0" xmlns="http://www.w3.org/2000/svg"
 width="966.000000pt" height="300.000000pt" viewBox="0 0 966.000000 300.000000"
 preserveAspectRatio="xMidYMid meet">

<g transform="translate(0.000000,300.000000) scale(0.100000,-0.100000)"
fill="#000000" stroke="none">
<path d="M595 2424 c-66 -16 -85 -28 -68 -45 7 -7 34 -4 91 10 115 30 248 29
348 -3 96 -31 83 -14 -17 21 -93 33 -260 41 -354 17z"/>
<path d="M224 2306 c-9 -24 0 -51 19 -54 22 -4 58 34 50 54 -7 18 -62 18 -69
0z"/>
<path d="M390 2287 c0 -70 -51 -120 -128 -127 l-56 -5 -37 -75 c-64 -128 -83
-269 -54 -405 14 -64 77 -215 90 -215 3 0 -6 22 -20 50 -75 148 -70 372 12
535 27 53 53 74 109 85 69 15 104 53 104 113 0 23 -5 49 -10 57 -8 12 -10 9
-10 -13z"/>
<path d="M717 2170 c-33 -27 -62 -91 -81 -183 -19 -93 -20 -137 -3 -137 8 0
19 31 29 80 23 110 59 187 96 203 31 13 32 31 2 47 -13 7 -24 4 -43 -10z"/>
<path d="M540 2126 c-79 -52 -150 -151 -169 -235 -8 -39 -8 -41 15 -41 17 0
24 6 24 20 0 48 95 187 137 201 14 4 48 79 36 78 -5 0 -24 -11 -43 -23z"/>
<path d="M916 2086 c13 -36 27 -104 31 -153 6 -60 12 -88 21 -87 6 1 44 2 83
3 l71 1 -7 38 c-11 58 -49 127 -71 128 -10 1 -36 2 -57 3 -37 1 -38 2 -35 34
2 24 8 32 21 31 18 -2 18 -1 0 18 -16 18 -64 48 -76 48 -3 0 6 -29 19 -64z"/>
<path d="M1426 2075 c52 -162 57 -373 12 -500 -13 -39 -41 -96 -61 -127 -33
-52 -35 -61 -30 -112 4 -42 2 -61 -11 -81 -23 -35 -74 -65 -111 -65 -37 0 -88
30 -111 65 -23 36 -15 117 16 150 27 29 83 49 113 41 21 -5 47 9 47 25 0 5
-30 9 -66 9 -36 0 -64 3 -62 8 54 108 68 141 74 176 3 22 12 44 18 48 6 4 37
8 69 8 l57 0 0 91 c0 83 -14 175 -29 190 -3 4 -47 9 -97 12 l-92 6 21 -52 c17
-42 21 -74 22 -173 0 -119 0 -121 -38 -196 -104 -211 -358 -316 -592 -244 -11
4 -5 -1 13 -9 17 -8 53 -20 80 -26 26 -7 53 -13 60 -15 8 -2 12 -26 12 -75 l0
-72 63 7 c34 3 93 16 131 28 74 23 98 19 104 -19 5 -32 -20 -49 -110 -74 -64
-18 -109 -23 -198 -23 -107 0 -130 3 -257 39 -10 3 0 -3 22 -13 44 -21 150
-49 205 -55 l35 -3 6 -105 c8 -142 29 -179 134 -233 47 -24 59 -25 207 -27
158 -1 158 -1 190 26 l32 27 -25 19 c-13 10 -27 19 -31 19 -5 0 -8 4 -8 9 0 9
110 54 213 87 l57 18 0 298 0 298 -30 0 c-16 0 -30 1 -30 3 0 1 9 30 21 62 12
33 22 84 23 112 0 32 6 55 14 57 13 6 16 189 4 261 -6 33 -12 41 -32 43 -18 2
-30 14 -43 40 -9 20 -14 28 -11 17z m36 -1062 c29 -27 37 -53 17 -53 -16 0
-70 60 -63 71 8 14 16 11 46 -18z"/>
<path d="M812 1975 c-35 -29 -50 -52 -62 -96 l-9 -29 65 0 64 0 -6 58 c-4 31
-10 65 -14 75 -6 18 -9 17 -38 -8z"/>
<path d="M2767 1387 c2 -336 -1 -515 -8 -542 -15 -55 -43 -92 -92 -118 -42
-22 -42 -22 -599 -22 -533 0 -557 -1 -562 -18 -4 -16 0 -18 20 -13 14 4 278 6
588 6 l563 0 33 22 c74 51 70 11 70 616 0 298 -3 549 -7 557 -4 7 -7 -212 -6
-488z"/>
<path d="M360 1757 c0 -31 62 -177 75 -177 2 0 -5 20 -16 45 -12 26 -17 54
-14 66 8 24 48 41 90 37 21 -2 30 1 30 12 0 12 -17 16 -82 18 -46 2 -83 1 -83
-1z"/>
<path d="M620 1726 c0 -53 27 -170 51 -221 27 -58 44 -70 19 -13 -10 24 -24
73 -31 110 -11 59 -10 70 5 92 19 29 64 45 76 27 4 -8 28 -11 66 -9 52 3 59 5
62 26 3 22 2 22 -122 22 l-126 0 0 -34z"/>
<path d="M957 1753 c-3 -5 -5 -30 -6 -58 -1 -57 -35 -201 -52 -222 -20 -23 0
-28 29 -6 22 16 29 33 40 94 28 154 25 148 90 151 50 3 57 6 60 26 3 21 1 22
-77 22 -44 0 -82 -3 -84 -7z"/>
<path d="M740 1450 c0 -36 9 -38 38 -7 29 31 28 37 -8 37 -27 0 -30 -3 -30
-30z"/>
<path d="M1189 1336 c-15 -33 4 -58 39 -54 55 7 54 70 -1 76 -21 3 -30 -3 -38
-22z"/>
<path d="M2050 1240 l0 -60 235 0 235 0 0 60 0 60 -235 0 -235 0 0 -60z"/>
<path d="M2230 1005 l0 -55 145 0 145 0 0 55 0 55 -145 0 -145 0 0 -55z"/>
</g>
</svg>
